<svg width="93" height="92" viewBox="0 0 93 92" fill="none" xmlns="http://www.w3.org/2000/svg">
<mask id="mask0_14556_485" style="mask-type:alpha" maskUnits="userSpaceOnUse" x="0" y="0" width="93" height="92">
<path d="M10.5237 8.66784C1.73317 16.36 0.145985 36.9031 0.451212 46.2131C0.14598 57.0493 1.82473 78.2639 11.8972 84.6741C21.9697 91.0843 38.2994 91.8474 46.6931 92C55.8499 92 66.3803 92 80.1155 85.132C89.7302 78.2639 91.5615 64.9857 92.0194 46.2131C92.4772 27.4404 90.6459 14.6202 81.0312 7.29426C73.3837 1.46727 54.7816 0.120962 46.6931 0.426197C38.2994 -0.0316717 19.3143 0.97564 10.5237 8.66784Z" fill="#C4C4C4"/>
</mask>
<g mask="url(#mask0_14556_485)">
<rect x="-30.75" y="-30.8333" width="154" height="154" fill="#4D7C0F"/>
<path d="M51.5778 73.2157C54.0831 75.4407 54.5085 76.4273 54.9602 78.4214C55.1413 79.593 54.994 80.7918 54.5348 81.8849C54.1761 82.8973 53.5884 83.8132 52.8173 84.5613C51.6768 85.6267 50.2618 86.3535 48.731 86.6604C47.1902 86.9058 45.6116 86.7243 44.1668 86.1356C42.9321 85.6384 41.8501 84.8253 41.0296 83.7779C40.209 82.7306 39.6788 81.4859 39.4923 80.1689C39.3899 78.9917 39.5925 77.808 40.0806 76.7317C40.5757 75.662 41.2467 74.6828 42.0659 73.8349C42.5176 73.3101 43.2792 72.9061 43.505 72.5387C43.8149 72.014 44.629 71.0746 44.2351 71.0484C43.9278 70.981 43.6272 70.8861 43.337 70.765C43.1952 70.6233 41.8979 69.5843 41.5039 68.7131C41.3043 68.3196 40.9419 68.0624 40.6846 67.6636C40.4009 67.2844 40.1379 66.8903 39.8967 66.4828C39.8255 66.332 39.7944 66.1654 39.8063 65.999C39.8183 65.8326 39.8729 65.6721 39.965 65.533C40.1261 65.2424 40.2665 64.9408 40.3852 64.6304C40.516 64.2683 40.5361 63.8756 40.443 63.5021C40.443 63.4497 40.3589 63.308 40.3274 63.1925C40.1331 62.2112 40.3852 61.2246 40.2749 60.1803C40.2749 60.1541 40.2171 60.1278 40.2171 60.0964C40.3274 59.0835 40.1856 58.2387 40.2171 57.3413C40.2171 57.1419 40.611 56.9162 40.4692 56.7746C40.2992 56.6173 40.1477 56.4413 40.0175 56.2498C39.8531 55.9523 39.7395 55.6295 39.6814 55.2947C39.6172 54.5654 39.5979 53.8328 39.6236 53.1011C39.6236 51.7735 39.5133 50.4248 39.5396 49.1286C39.6043 48.7316 39.7171 48.3439 39.8757 47.9741L39.3978 47.5805L39.1457 46.3998C39.1104 45.8563 39.1104 45.3112 39.1457 44.7677C39.2838 43.9786 39.5002 43.2051 39.7917 42.4587C39.9647 41.9401 39.9848 41.3827 39.8495 40.8529C39.583 40.1349 39.3568 39.4026 39.1719 38.6594C39.0301 37.7568 39.256 36.66 39.0564 35.9831C38.9723 35.6734 38.4944 35.5317 38.0427 35.4583C37.7642 35.4452 37.4895 35.3886 37.2286 35.2904C36.9973 35.2117 36.7847 35.0863 36.6039 34.922C36.4232 34.7577 36.2783 34.558 36.1781 34.3353C36.1519 34.2461 36.1781 34.2461 36.1519 34.1936C35.9523 33.8525 35.4743 33.7685 35.2485 33.4589C35.0579 33.1812 34.9339 32.8633 34.8861 32.53C34.7968 32.2519 34.9386 31.8583 34.7128 31.6327C34.4869 31.407 34.1875 31.491 33.9827 31.3231C33.4254 30.8112 32.9832 30.187 32.6854 29.4916C31.9238 27.8596 31.9238 24.1442 32.0079 24.0865L30.511 25.3879C30.3367 25.4111 30.16 25.4111 29.9857 25.3879C29.7862 25.3354 29.4605 25.136 29.5078 25.052C29.5056 24.8757 29.4862 24.6999 29.45 24.5273L30.6423 23.4462L32.0866 22.1868C32.0412 21.7744 32.0518 21.3578 32.1182 20.9483C32.1565 20.7022 32.2746 20.4755 32.4543 20.3028C32.7379 19.9355 32.9323 19.5104 33.3577 19.3163C33.719 19.182 34.0943 19.0887 34.4764 19.0381C34.4764 19.0381 34.7548 19.2376 34.9544 19.1536C35.3483 18.9804 35.3483 18.3927 35.6319 18.0516C35.9897 17.6638 36.3956 17.3234 36.8399 17.0388C37.1343 16.8513 37.4598 16.718 37.8011 16.6452C38.0446 16.6532 38.284 16.7103 38.5049 16.8131L40.3379 15.1811L47.607 8.6109C47.6046 8.46918 47.6222 8.32783 47.6596 8.19108C47.8397 7.76936 48.1461 7.41372 48.5367 7.17302C48.8981 6.97857 49.3171 6.91904 49.7185 7.0051C50.1279 7.09331 50.5121 7.27269 50.8424 7.52987C51.1823 7.73444 51.4573 8.03101 51.6355 8.38525C51.7513 8.71504 51.7401 9.0761 51.604 9.39806C51.457 9.66172 51.2175 9.86172 50.9317 9.95957C50.5871 10.0471 50.2259 10.0471 49.8813 9.95957C49.54 9.93354 49.2059 9.8483 48.8939 9.70768C48.6559 9.56253 48.4386 9.38602 48.2478 9.1829L40.4902 16.5192L39.4398 17.3956C39.5099 17.6248 39.5574 17.8603 39.5816 18.0988C39.5725 18.3635 39.5062 18.623 39.3873 18.8597C39.2731 19.1283 39.1132 19.3751 38.9146 19.5891C38.6362 19.8725 38.2108 19.9565 37.9324 20.2346C37.7736 20.3974 37.6486 20.5901 37.5647 20.8014C37.4187 21.1608 37.3233 21.5388 37.2811 21.9244C37.215 22.3337 37.1869 22.7483 37.1971 23.1629C37.1971 23.6876 37.4229 24.3174 37.4807 24.8526C37.507 25.2462 37.1971 25.813 37.5385 26.0334C37.8121 26.1928 38.1051 26.3163 38.4104 26.4007L38.8883 26.6526C39.1719 26.7943 39.4135 26.9675 39.7077 27.1039C39.902 27.1879 40.0701 27.361 40.2959 27.3033C40.7333 27.1616 41.1994 27.1327 41.651 27.2193C42.0115 27.3548 42.3624 27.5144 42.7014 27.6969C43.0479 27.9262 43.444 28.0701 43.8569 28.1167C44.0239 28.1135 44.1883 28.0744 44.3388 28.0019C44.4892 27.9295 44.6223 27.8254 44.7288 27.6969C44.8053 27.6091 44.8625 27.5064 44.8969 27.3952C44.9313 27.2841 44.942 27.167 44.9284 27.0514C44.8401 26.8729 44.6912 26.7315 44.5082 26.6526C44.3927 26.6001 44.2509 26.6841 44.1406 26.6526C43.967 26.5709 43.8151 26.4495 43.6974 26.2981C43.5796 26.1467 43.4993 25.9697 43.463 25.7815C43.4804 25.6498 43.4715 25.516 43.4368 25.3879C43.3212 25.0205 42.8695 24.7949 42.817 24.4013C42.6174 22.9949 42.3916 22.3022 42.6174 21.2527C42.7592 20.5442 43.1794 20.1244 43.6311 19.3373C43.7027 19.1439 43.7887 18.9562 43.8885 18.7758C44.068 18.5713 44.2769 18.3944 44.5082 18.251C44.9547 17.9414 47.0135 18.2195 47.1343 18.2195C47.5723 18.3377 47.9979 18.4977 48.4054 18.697C48.9936 19.0067 49.1355 19.6574 49.4558 20.2189C49.8326 20.7391 50.1185 21.3193 50.3015 21.9349C50.3293 22.2842 50.3293 22.6351 50.3015 22.9844C50.3015 23.4357 50.3015 23.8556 50.3015 24.3069C50.333 24.564 50.3855 25.0415 50.3855 25.0415C50.3176 25.1072 50.2608 25.1834 50.2174 25.2672C50.1071 25.5453 50.2752 25.8864 50.1334 26.1383C50.0789 26.2732 49.991 26.3921 49.878 26.4839C49.7651 26.5756 49.6307 26.6373 49.4874 26.6631C49.314 26.6946 49.4296 26.978 49.4874 27.1144C49.5977 27.3715 49.8235 27.3138 50.1596 27.6811C50.4657 27.9331 50.8248 28.1125 51.2101 28.2059C51.813 28.3458 52.4258 28.4388 53.0431 28.484C53.7469 28.5995 54.2827 29.3027 54.7344 29.8642C54.9573 30.2257 55.1539 30.6028 55.3226 30.9925C55.5942 31.4566 55.7943 31.9591 55.9161 32.4828C56.0382 33.0852 56.077 33.7014 56.0317 34.3143C55.9892 34.9445 55.8746 35.5678 55.6903 36.172C55.4959 37.0431 55.0705 37.8565 54.9602 38.7329C54.9287 38.927 54.5925 40.3072 54.5925 40.3387C54.4944 40.4603 54.4098 40.5923 54.3404 40.7322C54.2498 41.1191 54.2302 41.5192 54.2827 41.913C54.3453 42.534 54.4684 43.1474 54.6503 43.7444C54.9924 45.2188 55.2363 46.7142 55.3804 48.2208C55.3804 48.7455 55.2963 49.3175 55.2963 49.8528C55.2963 50.3881 55.3804 50.8656 55.0442 51.3169C54.9024 51.4848 54.519 51.3169 54.3667 51.5111C54.2144 51.7052 54.3667 52.0359 54.3667 52.3297C54.3667 53.904 54.477 55.4784 54.5663 57.0527C54.5925 57.9553 54.8184 59.304 54.6766 59.7815C54.5925 60.0386 54.2564 60.1226 53.999 60.2066C53.8887 60.259 53.5211 60.1488 53.5211 60.2905C53.4633 60.7418 53.5211 61.8963 53.4633 62.6835C53.2603 64.1979 52.9408 65.6945 52.5074 67.1598C52.2601 67.4566 52.113 67.824 52.0872 68.2093C52.0872 68.4035 52.1397 68.8811 52.1713 69.3324C52.2028 69.7837 52.3393 70.151 52.4234 70.5708C52.5074 70.9906 52.3393 71.3317 52.5074 71.8408C52.5228 72.1303 52.465 72.4191 52.3393 72.6804C52.3393 72.6804 51.9979 73.0478 51.8876 73.0215C51.688 73.1632 51.52 73.1632 51.5778 73.1894V73.2157Z" fill="white"/>
</g>
</svg>
