<svg width="1024" height="1024" viewBox="0 0 1024 1024" fill="none" xmlns="http://www.w3.org/2000/svg">
<rect width="1024" height="1024" fill="#4D7C0F"/>
<path d="M577.526 751.141C600.458 771.525 604.352 780.563 608.487 798.832C610.144 809.565 608.796 820.548 604.593 830.561C601.31 839.836 595.93 848.226 588.872 855.08C578.433 864.84 565.481 871.499 551.47 874.31C537.366 876.558 522.916 874.896 509.692 869.502C498.391 864.948 488.487 857.498 480.976 847.904C473.466 838.308 468.613 826.906 466.906 814.841C465.968 804.056 467.823 793.212 472.29 783.352C476.822 773.552 482.964 764.582 490.462 756.814C494.597 752.007 501.568 748.305 503.635 744.94C506.471 740.132 513.923 731.527 510.317 731.286C507.505 730.669 504.754 729.8 502.097 728.69C500.798 727.392 488.924 717.873 485.318 709.893C483.491 706.287 480.174 703.932 477.819 700.278C475.222 696.804 472.815 693.193 470.607 689.461C469.955 688.079 469.67 686.552 469.78 685.028C469.889 683.504 470.389 682.034 471.232 680.759C472.707 678.097 473.992 675.334 475.078 672.49C476.275 669.174 476.459 665.576 475.607 662.154C475.607 661.674 474.838 660.375 474.549 659.318C472.771 650.328 475.078 641.29 474.069 631.723C474.069 631.482 473.54 631.242 473.54 630.954C474.549 621.675 473.251 613.935 473.54 605.714C473.54 603.887 477.146 601.82 475.847 600.522C474.291 599.082 472.904 597.469 471.713 595.715C470.208 592.989 469.168 590.032 468.636 586.965C468.049 580.283 467.872 573.572 468.107 566.869C468.107 554.706 467.098 542.351 467.338 530.477C467.93 526.839 468.963 523.287 470.415 519.9L466.04 516.294L463.733 505.478C463.409 500.499 463.409 495.505 463.733 490.526C464.997 483.296 466.978 476.21 469.646 469.373C471.23 464.622 471.413 459.515 470.175 454.662C467.736 448.084 465.665 441.375 463.973 434.567C462.675 426.298 464.742 416.25 462.915 410.048C462.146 407.212 457.771 405.914 453.637 405.241C451.088 405.121 448.573 404.602 446.185 403.703C444.068 402.982 442.122 401.833 440.467 400.328C438.813 398.823 437.487 396.993 436.57 394.953C436.33 394.136 436.57 394.136 436.33 393.655C434.503 390.53 430.128 389.761 428.061 386.924C426.317 384.38 425.182 381.468 424.744 378.415C423.926 375.867 425.224 372.261 423.157 370.194C421.09 368.127 418.35 368.896 416.475 367.358C411.373 362.669 407.326 356.95 404.6 350.579C397.629 335.628 397.629 301.591 398.398 301.062L384.697 312.985C383.102 313.197 381.485 313.197 379.89 312.985C378.063 312.504 375.082 310.677 375.515 309.908C375.495 308.292 375.317 306.682 374.986 305.1L385.899 295.197L399.12 283.659C398.703 279.881 398.8 276.065 399.408 272.313C399.759 270.059 400.84 267.982 402.485 266.4C405.081 263.035 406.86 259.141 410.754 257.362C414.061 256.131 417.496 255.277 420.994 254.814C420.994 254.814 423.542 256.641 425.369 255.872C428.974 254.285 428.974 248.901 431.57 245.776C434.845 242.224 438.561 239.105 442.628 236.497C445.322 234.78 448.301 233.559 451.425 232.892C453.654 232.965 455.846 233.488 457.867 234.43L474.646 219.479L541.182 159.289C541.159 157.99 541.321 156.695 541.662 155.443C543.311 151.579 546.116 148.321 549.691 146.116C552.999 144.335 556.834 143.789 560.508 144.578C564.255 145.386 567.772 147.029 570.796 149.385C573.907 151.259 576.424 153.976 578.055 157.221C579.115 160.243 579.012 163.55 577.767 166.5C576.421 168.915 574.229 170.748 571.613 171.644C568.458 172.446 565.153 172.446 561.998 171.644C558.874 171.406 555.816 170.625 552.96 169.336C550.782 168.007 548.793 166.39 547.047 164.529L476.04 231.738L466.425 239.766C467.067 241.866 467.501 244.024 467.723 246.208C467.639 248.633 467.033 251.011 465.944 253.179C464.899 255.64 463.435 257.901 461.617 259.862C459.069 262.458 455.175 263.227 452.627 265.775C451.174 267.266 450.03 269.031 449.262 270.967C447.925 274.26 447.052 277.722 446.666 281.255C446.061 285.005 445.803 288.803 445.897 292.601C445.897 297.408 447.964 303.177 448.493 308.081C448.733 311.687 445.897 316.879 449.022 318.898C451.526 320.359 454.208 321.49 457.002 322.263L461.377 324.571C463.973 325.869 466.184 327.455 468.877 328.705C470.655 329.475 472.194 331.061 474.261 330.532C478.264 329.234 482.531 328.969 486.664 329.763C489.964 331.004 493.176 332.466 496.279 334.138C499.451 336.239 503.076 337.557 506.856 337.984C508.385 337.955 509.889 337.596 511.266 336.932C512.643 336.269 513.861 335.315 514.836 334.138C515.536 333.334 516.06 332.393 516.375 331.374C516.69 330.356 516.788 329.283 516.663 328.225C515.855 326.589 514.492 325.294 512.817 324.571C511.76 324.09 510.462 324.859 509.452 324.571C507.863 323.823 506.473 322.71 505.395 321.323C504.318 319.937 503.583 318.315 503.25 316.59C503.41 315.384 503.328 314.159 503.01 312.985C501.952 309.62 497.818 307.552 497.337 303.947C495.51 291.063 493.443 284.717 495.51 275.102C496.808 268.611 500.654 264.765 504.789 257.554C505.444 255.783 506.232 254.064 507.144 252.41C508.788 250.537 510.7 248.917 512.817 247.603C516.904 244.766 535.749 247.314 536.855 247.314C540.864 248.397 544.76 249.862 548.489 251.689C553.873 254.525 555.171 260.487 558.104 265.631C561.553 270.397 564.17 275.712 565.844 281.351C566.099 284.551 566.099 287.766 565.844 290.966C565.844 295.101 565.844 298.947 565.844 303.081C566.133 305.437 566.613 309.812 566.613 309.812C565.992 310.413 565.472 311.111 565.075 311.879C564.065 314.427 565.604 317.552 564.306 319.859C563.807 321.095 563.003 322.184 561.969 323.025C560.934 323.866 559.704 324.431 558.392 324.667C556.806 324.955 557.864 327.552 558.392 328.801C559.402 331.157 561.469 330.628 564.546 333.994C567.347 336.301 570.634 337.945 574.161 338.801C579.68 340.083 585.289 340.934 590.939 341.349C597.381 342.407 602.285 348.849 606.42 353.993C608.46 357.304 610.26 360.759 611.804 364.329C614.29 368.581 616.122 373.184 617.236 377.982C618.354 383.5 618.71 389.146 618.294 394.761C617.905 400.534 616.857 406.244 615.169 411.779C613.39 419.76 609.496 427.211 608.487 435.24C608.198 437.019 605.121 449.662 605.121 449.951C604.223 451.065 603.449 452.274 602.814 453.556C601.984 457.1 601.805 460.765 602.285 464.373C602.858 470.062 603.985 475.682 605.65 481.151C608.782 494.658 611.014 508.358 612.333 522.16C612.333 526.967 611.564 532.207 611.564 537.111C611.564 542.015 612.333 546.389 609.256 550.524C607.958 552.062 604.448 550.524 603.054 552.303C601.66 554.081 603.054 557.11 603.054 559.802C603.054 574.225 604.064 588.647 604.881 603.07C605.121 611.339 607.189 623.694 605.891 628.069C605.121 630.425 602.045 631.194 599.689 631.963C598.679 632.444 595.314 631.434 595.314 632.732C594.785 636.867 595.314 647.443 594.785 654.655C592.928 668.529 590.002 682.239 586.036 695.663C583.772 698.382 582.426 701.747 582.19 705.278C582.19 707.056 582.67 711.431 582.959 715.566C583.247 719.7 584.497 723.065 585.266 726.911C586.036 730.757 584.497 733.882 586.036 738.546C586.177 741.198 585.648 743.844 584.497 746.238C584.497 746.238 581.372 749.603 580.363 749.363C578.536 750.661 576.998 750.661 577.526 750.901V751.141Z" fill="white"/>
</svg>
